<?xml version="1.0" encoding="utf-8"?>
<!-- Generator: Adobe Illustrator 14.0.0, SVG Export Plug-In . SVG Version: 6.00 Build 43363)  -->
<!DOCTYPE svg PUBLIC "-//W3C//DTD SVG 1.1//EN" "http://www.w3.org/Graphics/SVG/1.1/DTD/svg11.dtd">
<svg version="1.1" xmlns="http://www.w3.org/2000/svg" xmlns:xlink="http://www.w3.org/1999/xlink" x="0px" y="0px" width="400px"
	 height="100px" viewBox="6 0 400 100" enable-background="new 6 0 400 100" xml:space="preserve">
<g id="Layer_1">
	<g id="Your_Icon">
		<path fill="#4E4E4E" d="M83.445,17.666c0,0-1.117-7.666-9.062-7.666H25.15c-7.947,0-9.063,7.666-9.063,7.666l-1.451,47.375
			l1.948,11.01l-1.253,1.535L17.439,85h3.173v3.004c0,1.098,0.89,1.992,1.992,1.992h2.833h3.071h2.836
			c1.099,0,1.99-0.895,1.99-1.996v-3h32.7v3c0,1.102,0.891,1.996,1.989,1.996h2.965h2.941h2.965c1.103,0,1.992-0.895,1.992-1.996v-3
			h3.203l2.109-7.416l-1.254-1.533l1.951-11.01L83.445,17.666z M24.735,13.429c0-1.102,0.891-1.992,1.991-1.992h45.959
			c1.098,0,1.987,0.891,1.987,1.992v5.186c0,1.101-0.891,1.993-1.987,1.993H26.727c-1.1,0-1.991-0.892-1.991-1.993L24.735,13.429
			L24.735,13.429z M30.786,72.604l-11.438-1.021l-1.159-6.541c0,0,5.289,1.133,12.677,2.194L30.786,72.604z M18.328,57.232
			l0.489-33.85l13.105-1.394h34.982l13.107,1.394l1.188,33.85c0,0-12.729,3.604-31.436,3.604
			C31.06,60.836,18.328,57.232,18.328,57.232z M80.059,71.582l-11.436,1.021l-0.08-5.367c7.389-1.062,12.68-2.195,12.68-2.195
			L80.059,71.582z"/>
		<path fill="#4E4E4E" d="M90.008,16.859H88.73c-1.101,0-1.992,0.894-1.992,1.993v12.527c0,1.099,0.893,1.991,1.992,1.991h1.276
			c1.103,0,1.992-0.892,1.992-1.991V18.852C92,17.753,91.109,16.859,90.008,16.859z"/>
		<path fill="#4E4E4E" d="M10.503,16.859H9.225c-1.101,0-1.993,0.894-1.993,1.993v12.527c0,1.099,0.892,1.991,1.993,1.991h1.278
			c1.099,0,1.991-0.892,1.991-1.991V18.852C12.495,17.753,11.603,16.859,10.503,16.859z"/>
	</g>
	<g>
		<path d="M129.134,78.742h-6.465V60.06c0-2.319-0.438-4.05-1.315-5.191c-0.876-1.142-2.246-1.712-4.108-1.712
			c-2.484,0-4.306,0.808-5.466,2.424s-1.739,4.306-1.739,8.067v15.095h-6.438V48.444h5.04l0.904,3.972h0.329
			c0.84-1.442,2.059-2.557,3.657-3.342c1.598-0.785,3.355-1.178,5.272-1.178c4.657,0,7.744,1.589,9.26,4.767h0.438
			c0.895-1.498,2.154-2.667,3.78-3.507c1.625-0.84,3.488-1.26,5.589-1.26c3.615,0,6.25,0.914,7.903,2.74
			c1.652,1.826,2.479,4.611,2.479,8.355v19.751h-6.438V60.06c0-2.319-0.443-4.05-1.328-5.191c-0.887-1.142-2.261-1.712-4.123-1.712
			c-2.503,0-4.333,0.78-5.493,2.342c-1.159,1.562-1.739,3.958-1.739,7.191V78.742z"/>
		<path d="M175.595,70.113c0,2.958-1.077,5.228-3.232,6.808c-2.155,1.579-5.241,2.369-9.259,2.369c-4.037,0-7.278-0.611-9.726-1.835
			v-5.562c3.562,1.644,6.876,2.466,9.944,2.466c3.963,0,5.944-1.196,5.944-3.589c0-0.768-0.219-1.406-0.657-1.918
			c-0.438-0.511-1.16-1.041-2.164-1.589c-1.005-0.548-2.401-1.168-4.191-1.862c-3.488-1.352-5.849-2.703-7.081-4.055
			c-1.233-1.352-1.85-3.104-1.85-5.26c0-2.593,1.045-4.606,3.137-6.041c2.091-1.433,4.936-2.15,8.533-2.15
			c3.562,0,6.931,0.722,10.108,2.164l-2.082,4.849c-3.269-1.352-6.018-2.027-8.245-2.027c-3.397,0-5.096,0.969-5.096,2.904
			c0,0.949,0.442,1.753,1.329,2.41c0.885,0.657,2.816,1.562,5.794,2.712c2.502,0.969,4.318,1.854,5.451,2.657
			c1.132,0.804,1.973,1.73,2.521,2.781C175.321,67.396,175.595,68.652,175.595,70.113z"/>
		<path d="M196.921,79.29c-3.835,0-6.812-1.379-8.931-4.137h-0.384c0.256,2.558,0.384,4.109,0.384,4.657v12.41h-6.438V48.444h5.205
			c0.146,0.566,0.447,1.918,0.903,4.054h0.329c2.009-3.068,5.022-4.602,9.04-4.602c3.78,0,6.726,1.37,8.835,4.109
			c2.109,2.74,3.164,6.584,3.164,11.533s-1.073,8.812-3.219,11.588C203.664,77.902,200.701,79.29,196.921,79.29z M195.359,53.156
			c-2.558,0-4.425,0.749-5.603,2.246s-1.767,3.89-1.767,7.177v0.959c0,3.689,0.584,6.36,1.753,8.013
			c1.169,1.653,3.077,2.479,5.726,2.479c2.228,0,3.945-0.913,5.15-2.739s1.808-4.429,1.808-7.808c0-3.396-0.599-5.967-1.794-7.711
			C199.437,54.028,197.679,53.156,195.359,53.156z"/>
		<path d="M228.985,47.896c3.78,0,6.726,1.37,8.835,4.109c2.109,2.74,3.164,6.584,3.164,11.533c0,4.968-1.068,8.835-3.205,11.602
			s-5.105,4.15-8.903,4.15c-3.835,0-6.812-1.379-8.931-4.137h-0.438l-1.178,3.589h-4.821V36.117h6.438v10.136
			c0,0.749-0.037,1.863-0.109,3.342c-0.073,1.479-0.128,2.42-0.165,2.821h0.274C221.99,49.403,225.004,47.896,228.985,47.896z
			 M227.314,53.156c-2.594,0-4.461,0.763-5.603,2.287c-1.142,1.525-1.73,4.077-1.767,7.656v0.438c0,3.689,0.584,6.36,1.753,8.013
			c1.169,1.653,3.077,2.479,5.726,2.479c2.283,0,4.014-0.904,5.191-2.712s1.767-4.42,1.767-7.835
			C234.382,56.599,232.026,53.156,227.314,53.156z"/>
		<path d="M267.831,78.742l-0.904-3.973h-0.328c-0.896,1.407-2.169,2.512-3.821,3.315c-1.653,0.803-3.539,1.205-5.657,1.205
			c-3.671,0-6.41-0.913-8.219-2.739c-1.808-1.826-2.712-4.593-2.712-8.301V48.444h6.492v18.683c0,2.319,0.476,4.06,1.425,5.219
			c0.949,1.16,2.438,1.739,4.466,1.739c2.702,0,4.688-0.808,5.958-2.424c1.269-1.616,1.904-4.324,1.904-8.123V48.444h6.465v30.298
			H267.831z"/>
		<path d="M302.43,70.113c0,2.958-1.077,5.228-3.232,6.808c-2.155,1.579-5.241,2.369-9.259,2.369c-4.037,0-7.278-0.611-9.726-1.835
			v-5.562c3.562,1.644,6.876,2.466,9.944,2.466c3.963,0,5.944-1.196,5.944-3.589c0-0.768-0.219-1.406-0.657-1.918
			c-0.438-0.511-1.16-1.041-2.164-1.589c-1.005-0.548-2.401-1.168-4.191-1.862c-3.488-1.352-5.849-2.703-7.081-4.055
			c-1.233-1.352-1.85-3.104-1.85-5.26c0-2.593,1.045-4.606,3.137-6.041c2.091-1.433,4.936-2.15,8.533-2.15
			c3.562,0,6.931,0.722,10.108,2.164l-2.082,4.849c-3.269-1.352-6.018-2.027-8.245-2.027c-3.397,0-5.096,0.969-5.096,2.904
			c0,0.949,0.442,1.753,1.329,2.41c0.885,0.657,2.816,1.562,5.794,2.712c2.502,0.969,4.318,1.854,5.451,2.657
			c1.132,0.804,1.973,1.73,2.521,2.781C302.156,67.396,302.43,68.652,302.43,70.113z"/>
		<path fill="#F89406" d="M307.073,75.318c0-1.333,0.347-2.356,1.041-3.068c0.693-0.713,1.698-1.068,3.014-1.068
			c1.332,0,2.346,0.369,3.04,1.109c0.694,0.739,1.041,1.749,1.041,3.027c0,1.297-0.352,2.324-1.055,3.081
			c-0.703,0.758-1.712,1.138-3.026,1.138c-1.315,0-2.32-0.375-3.014-1.124C307.42,77.665,307.073,76.633,307.073,75.318z"/>
		<g>
			<path fill="#4E4E4E" d="M347.329,63.538c0,4.949-1.27,8.812-3.809,11.588c-2.538,2.776-6.072,4.164-10.602,4.164
				c-2.831,0-5.333-0.639-7.506-1.918c-2.174-1.277-3.845-3.113-5.013-5.506c-1.169-2.393-1.754-5.168-1.754-8.328
				c0-4.912,1.261-8.748,3.78-11.506c2.521-2.757,6.072-4.136,10.657-4.136c4.383,0,7.853,1.411,10.409,4.233
				C346.05,54.95,347.329,58.754,347.329,63.538z M325.276,63.538c0,6.995,2.584,10.492,7.753,10.492
				c5.113,0,7.67-3.497,7.67-10.492c0-6.921-2.575-10.382-7.726-10.382c-2.703,0-4.661,0.895-5.876,2.685
				S325.276,60.196,325.276,63.538z"/>
			<path fill="#4E4E4E" d="M370.094,47.896c1.296,0,2.364,0.092,3.205,0.274l-0.63,5.999c-0.914-0.219-1.863-0.328-2.85-0.328
				c-2.575,0-4.661,0.84-6.26,2.521c-1.598,1.68-2.396,3.862-2.396,6.547v15.834h-6.438V48.444h5.04l0.85,5.342h0.328
				c1.005-1.809,2.315-3.241,3.932-4.301C366.491,48.426,368.23,47.896,370.094,47.896z"/>
			<path fill="#4E4E4E" d="M403.5,48.444v3.534l-5.178,0.959c0.475,0.64,0.867,1.425,1.179,2.356
				c0.31,0.931,0.465,1.917,0.465,2.958c0,3.123-1.077,5.58-3.232,7.369c-2.155,1.79-5.122,2.685-8.903,2.685
				c-0.968,0-1.845-0.072-2.629-0.219c-1.389,0.858-2.082,1.862-2.082,3.014c0,0.693,0.323,1.214,0.972,1.561
				c0.648,0.348,1.84,0.521,3.575,0.521h5.287c3.343,0,5.881,0.713,7.616,2.138c1.734,1.424,2.603,3.479,2.603,6.163
				c0,3.434-1.416,6.082-4.247,7.944c-2.831,1.863-6.921,2.795-12.272,2.795c-4.127,0-7.277-0.731-9.451-2.192
				c-2.173-1.461-3.26-3.543-3.26-6.245c0-1.863,0.589-3.43,1.768-4.698c1.178-1.27,2.825-2.15,4.944-2.644
				c-0.858-0.365-1.566-0.954-2.123-1.768c-0.558-0.812-0.836-1.666-0.836-2.562c0-1.132,0.319-2.091,0.959-2.876
				s1.589-1.562,2.85-2.328c-1.571-0.676-2.846-1.776-3.822-3.302c-0.977-1.524-1.466-3.31-1.466-5.355
				c0-3.287,1.037-5.835,3.109-7.644c2.073-1.807,5.027-2.711,8.862-2.711c0.858,0,1.758,0.06,2.698,0.178
				c0.94,0.119,1.648,0.242,2.123,0.37H403.5z M379.694,83.454c0,1.388,0.625,2.456,1.877,3.205c1.25,0.749,3.009,1.123,5.273,1.123
				c3.506,0,6.117-0.502,7.834-1.507c1.717-1.004,2.575-2.338,2.575-3.999c0-1.315-0.47-2.251-1.41-2.809
				c-0.941-0.557-2.689-0.835-5.246-0.835h-4.877c-1.845,0-3.31,0.434-4.396,1.301S379.694,81.975,379.694,83.454z M382.461,58.251
				c0,1.899,0.488,3.36,1.466,4.384c0.977,1.022,2.379,1.533,4.205,1.533c3.726,0,5.589-1.99,5.589-5.972
				c0-1.973-0.462-3.493-1.384-4.562c-0.923-1.068-2.324-1.603-4.205-1.603c-1.862,0-3.273,0.53-4.232,1.589
				C382.94,54.681,382.461,56.224,382.461,58.251z"/>
		</g>
	</g>
</g>
<g id="Layer_2">
</g>
</svg>
