<?xml version="1.0" encoding="UTF-8" standalone="no"?>
<svg
   xmlns:dc="http://purl.org/dc/elements/1.1/"
   xmlns:cc="http://creativecommons.org/ns#"
   xmlns:rdf="http://www.w3.org/1999/02/22-rdf-syntax-ns#"
   xmlns:svg="http://www.w3.org/2000/svg"
   xmlns="http://www.w3.org/2000/svg"
   xmlns:sodipodi="http://sodipodi.sourceforge.net/DTD/sodipodi-0.dtd"
   xmlns:inkscape="http://www.inkscape.org/namespaces/inkscape"
   version="1.1"
   height="725"
   width="725"
   id="svg2"
   sodipodi:version="0.32"
   inkscape:version="0.48.4 r9939"
   sodipodi:docname="bicycle.svg"
   inkscape:output_extension="org.inkscape.output.svg.inkscape"
   sodipodi:modified="TRUE"
   inkscape:export-filename="/home/uwe/Desktop/Zeichen_237.png"
   inkscape:export-xdpi="4.2362185"
   inkscape:export-ydpi="4.2362185">
  <metadata
     id="metadata13">
    <rdf:RDF>
      <cc:Work
         rdf:about="">
        <dc:format>image/svg+xml</dc:format>
        <dc:type
           rdf:resource="http://purl.org/dc/dcmitype/StillImage" />
      </cc:Work>
    </rdf:RDF>
  </metadata>
  <defs
     id="defs11" />
  <sodipodi:namedview
     inkscape:window-height="624"
     inkscape:window-width="872"
     inkscape:pageshadow="2"
     inkscape:pageopacity="0.0"
     guidetolerance="10.0"
     gridtolerance="10.0"
     objecttolerance="10.0"
     borderopacity="1.0"
     bordercolor="#666666"
     pagecolor="#ffffff"
     id="base"
     inkscape:zoom="0.56137931"
     inkscape:cx="409.18887"
     inkscape:cy="362.5"
     inkscape:window-x="72"
     inkscape:window-y="47"
     inkscape:current-layer="svg2"
     showgrid="false"
     inkscape:window-maximized="0" />
  <path
     style="fill:#ffffff;fill-rule:evenodd;stroke:#000000;stroke-width:2.5px"
     id="OuterCircle"
     d="M -101.56634,275.21499 C -101.56634,468.51465 -258.26668,625.21499 -451.56634,625.21499 C -644.866,625.21499 -801.56634,468.51465 -801.56634,275.21499 C -801.56634,81.915331 -644.866,-74.785013 -451.56634,-74.785013 C -258.26668,-74.785013 -101.56634,81.915331 -101.56634,275.21499 L -101.56634,275.21499 z "
     inkscape:export-xdpi="2.5599999"
     inkscape:export-ydpi="2.5599999" />
  <path
     style="fill:#003399;fill-opacity:1;fill-rule:evenodd"
     id="BlueCircle"
     d="M -787.50747,13.111886 C -972.29333,13.111886 -1123.0075,163.82603 -1123.0075,348.61189 C -1123.0075,533.39775 -972.29333,684.11189 -787.50747,684.11189 C -602.72161,684.11189 -452.00747,533.39775 -452.00747,348.61189 C -452.00747,163.82603 -602.72161,13.111886 -787.50747,13.111886 z " />
  <g
     id="g3138"
     transform="matrix(-1,0,0,1,837.22348,-19.594595)"
     inkscape:export-xdpi="4.2362185"
     inkscape:export-ydpi="4.2362185">
    <circle
       transform="matrix(0.612193,0,0,0.612193,156.40859,178.29391)"
       r="161"
       cy="409"
       cx="215"
       style="fill:none;stroke:#000000;stroke-width:40px;stroke-opacity:1"
       id="FrontWheel"
       sodipodi:cx="215"
       sodipodi:cy="409"
       sodipodi:rx="161"
       sodipodi:ry="161"
       d="m 376,409 c 0,88.91784 -72.08216,161 -161,161 -88.91784,0 -161,-72.08216 -161,-161 0,-88.91784 72.08216,-161 161,-161 88.91784,0 161,72.08216 161,161 z" />
    <circle
       transform="matrix(0.612193,0,0,0.612193,156.40859,178.29391)"
       r="161"
       cy="406"
       cx="790"
       style="fill:none;stroke:#000000;stroke-width:40px;stroke-opacity:1"
       id="RearWheel"
       sodipodi:cx="790"
       sodipodi:cy="406"
       sodipodi:rx="161"
       sodipodi:ry="161"
       d="m 951,406 c 0,88.91784 -72.08216,161 -161,161 -88.91784,0 -161,-72.08216 -161,-161 0,-88.91784 72.08216,-161 161,-161 88.91784,0 161,72.08216 161,161 z" />
    <path
       style="fill:#000000;fill-opacity:1;fill-rule:evenodd;stroke:#000000;stroke-width:0.61219299;stroke-opacity:1"
       id="Frame"
       d="m 419.33591,187.76277 c -81.15626,0.791 -67.39292,-8.38456 -111.05594,131.93826 -35.56995,112.11783 -31.69552,99.89097 -31.88155,107.75543 -0.13037,6.10982 4.80163,10.95404 10.99923,11.36869 12.88887,-1.30322 7.46752,1.39395 52.15306,-137.36977 163.27931,172.24394 102.021,144.31296 189.89195,147.81092 115.48553,-1.10739 124.87203,6.01158 126.24309,-10.91575 -0.1582,-5.74792 -2.84759,-9.17557 -82.10546,-185.56784 l 7.59356,-20.88232 26.1029,-0.4746 -0.9492,-21.83151 -97.2926,0 c -8.5955,11.75949 3.48039,11.70675 46.98521,21.35692 l -7.59357,21.3569 -194.11061,0.47461 c 13.07781,-45.66688 5.69518,-42.8193 64.54534,-42.71383 l 0.47459,-22.30611 z m -70.62884,88.427 189.94107,-0.33678 -54.89431,147.50742 -135.04676,-147.17064 z m 212.84176,8.75614 -53.88399,141.44548 117.87123,0.33677 -63.98724,-141.78225 z"
       inkscape:connector-curvature="0" />
  </g>
</svg>
